<svg viewBox="0 0 477 133" xmlns="http://www.w3.org/2000/svg"><g fill="none" fill-rule="evenodd"><g fill="#000"><path d="M159.514 66.505c0-3.8-.4-5.8-1.6-7.7-1.3-2-3.2-3-5.9-3-5.1 0-8 4-8 11.1v.201h15.5v-.6zm-15.7 10.4v.401c0 7.9 3.9 12.4 10.8 12.4 4.6 0 8.9-1.7 13.001-5.099l5.2 8c-5.9 4.8-12.1 7.1-19.302 7.1-14.7 0-24.2-10.4-24.2-26.502 0-9.2 1.9-15.3 6.4-20.3 4.2-4.7 9.3-6.9 16.1-6.9 5.9 0 11.501 2 14.802 5.4 4.7 4.8 6.8 11.7 6.8 22.401v3.1h-29.602zM209.113 98.307V65.005c0-5.8-1-7.5-4.5-7.5-2.7 0-6.2 1.8-9.301 4.6v36.202h-13.4V61.205c0-4.4-.601-8.6-1.801-12l11.9-3.4c1.202 2.1 1.9 4.3 1.9 6.4 2.002-1.4 3.7-2.6 5.9-3.8 2.7-1.4 6.202-2.2 9.202-2.2 5.7 0 10.7 3 12.3 7.4.7 1.9 1 4.1 1 7.3v37.402h-13.2zM261.112 60.605c-2.501-2.2-4.9-3.3-7.301-3.3-6 0-8.6 5-8.6 16.401 0 11.001 2.299 14.601 9.3 14.601 2.5 0 5.3-1.7 6.6-3.301V60.605zm3 37.702c-.4-.8-.601-1.599-.8-3-3.301 2.901-7.201 4.301-11.801 4.301-13.001 0-21.201-10.101-21.201-26.002 0-16.001 8.9-27.002 21.9-27.002 3.702 0 6.6.9 9.1 2.9-.198-1.099-.398-4.6-.398-7.6V26.403l13.3-2.1v55.303c0 12.601 1 16.701 1.9 18.701h-12zM312.41 66.505c0-3.8-.4-5.8-1.6-7.7-1.3-2-3.2-3-5.9-3-5.1 0-8 4-8 11.1v.201h15.5v-.6zm-15.7 10.4v.401c0 7.9 3.9 12.4 10.8 12.4 4.6 0 8.9-1.7 13.002-5.099l5.2 8c-5.901 4.8-12.101 7.1-19.302 7.1-14.7 0-24.201-10.4-24.201-26.502 0-9.2 1.9-15.3 6.4-20.3 4.2-4.7 9.3-6.9 16.1-6.9 5.9 0 11.502 2 14.803 5.4 4.7 4.8 6.799 11.7 6.799 22.401v3.1H296.71zM386.11 98.307V64.505c0-6.1-.7-7.3-4.2-7.3-2.5 0-6 1.7-8.9 4.3v36.802h-12.701V65.005c0-6.4-.9-7.9-4.6-7.9-2.5 0-5.9 1.3-8.8 3.9v37.302h-13.101V62.605c0-7.4-.5-10.6-1.9-13.1l12.1-3.3c.9 1.4 1.3 2.6 1.8 5.2 3.5-3.4 7.8-5.2 12.5-5.2 4.2 0 7.7 1.4 10.402 4.2.7.7 1.4 1.6 2 2.5 4.7-4.8 8.9-6.7 14.5-6.7 4.002 0 7.8 1.2 10.1 3.2 2.902 2.5 3.802 5.5 3.802 12.5v36.402H386.11zM409.107 98.307V48.004l13.401-2.1v52.403zM462.41 60.505c-1.9-2-4.7-3.5-7.7-3.5-8.101 0-9.001 8.5-9.001 14.801 0 6.6 0 16.7 9 16.7 3 0 6.1-2 7.7-3.899V60.505zm12.7 1.6v55.004l-12.7 3.4v-19.4c0-2 .1-4.102.3-5.202-2.7 2.4-6.2 3.6-10.2 3.6-15.402 0-21.502-12.4-21.502-26 0-9.102 1.5-14.803 5.2-19.603 3.8-4.9 9.8-8.1 16-8.1 5.302 0 10.902 2.4 12.002 5.2.1-1.8.3-2.5 1-4h11.1c-.9 3.9-1.2 9-1.2 15.101zM415.808 41.304c-4.5 0-8.2-3.7-8.2-8.3 0-4.6 3.8-8.302 8.4-8.302 4.5 0 8.1 3.701 8.1 8.301a8.28 8.28 0 0 1-8.3 8.301"/></g><path d="M93.5 16.043c21.39 21.39 21.39 56.067 0 77.457l-38.728 38.73-38.73-38.73c-21.39-21.39-21.39-56.068 0-77.457 21.39-21.39 56.069-21.39 77.459 0" fill="#FFEC00"/><path d="M84.995 72.768c-5.913.49-11.263-.978-15.38-4.2a18.976 18.976 0 0 1-1.477-1.277c-2.011-1.934-3.553-4.262-4.61-6.883a22.997 22.997 0 0 1-1.493-6.023 27.048 27.048 0 0 1-.146-4c.003-.106.002-.21.007-.316 6.1-.506 12.38 1.168 16.859 5.476 4.38 4.216 6.567 10.286 6.24 17.223zm-60.447 0c-.327-6.937 1.86-13.008 6.24-17.223 2.759-2.654 6.213-4.387 10.103-5.138l.116-.022c.454-.086.914-.158 1.379-.216a25.315 25.315 0 0 1 5.26-.1c.005.105.004.21.008.316.155 4.274-.66 8.63-2.763 12.384a19.418 19.418 0 0 1-3.485 4.522c-.527.507-1.08.981-1.655 1.42h-.001c-4.092 3.125-9.375 4.537-15.202 4.057zm22.295-5.662c2.085-2.855 3.525-6.164 4.259-9.8h7.338c.735 3.636 2.175 6.945 4.26 9.8H46.843zm16.822 17.8l-1.8 1.8h-14.29l-1.8-1.8a12.6 12.6 0 0 1-3.65-8h25.219a12.601 12.601 0 0 1-3.68 8zm17.863-32.242c-4.174-4.018-9.621-6.287-15.725-6.637 2.788-4.064 1.04-8.909-2.814-11.496v-4.249c0-1.036.735-1.879 1.637-1.879h2.542v-4h-2.542c-3.11 0-5.637 2.637-5.637 5.88v2.444a15.965 15.965 0 0 0-8.532.027v-2.472c0-3.242-2.53-5.879-5.638-5.879h-2.547v4h2.547c.904 0 1.638.843 1.638 1.88v4.315c-3.796 2.603-5.476 7.407-2.717 11.43-5.514.315-10.877 2.308-15.03 5.993-3.924 3.48-6.517 8.213-7.586 13.33-.646 3.091-.754 6.282-.438 9.421l.159 1.562 1.554.217c5.339.746 10.88.16 15.765-2.205a16.615 16.615 0 0 0-.078 1.798 16.557 16.557 0 0 0 3.658 10.241c.374.465.772.918 1.203 1.35L54.72 99.507l11.772-11.772a16.735 16.735 0 0 0 4.855-12.55c-.014-.298-.052-.593-.082-.888 4.909 2.407 10.5 3.006 15.877 2.254l1.555-.217.158-1.562c.893-8.85-1.71-16.702-7.328-22.108z" fill="#000"/></g></svg>
